<?xml version="1.0" encoding="UTF-8"?>
<mxfile host="app.diagrams.net" modified="2024-01-01T00:00:00.000Z" agent="Mozilla/5.0" version="21.6.6">
  <diagram name="Vuely Architecture" id="vuely-architecture">
    <mxGraphModel dx="1422" dy="798" grid="1" gridSize="10" guides="1" tooltips="1" connect="1" arrows="1" fold="1" page="1" pageScale="1" pageWidth="1169" pageHeight="827" math="0" shadow="0">
      <root>
        <mxCell id="0" />
        <mxCell id="1" parent="0" />
        
        <!-- Project Structure -->
        <mxCell id="2" value="Vuely Project" style="swimlane;fontStyle=1;align=center;verticalAlign=top;childLayout=stackLayout;horizontal=1;startSize=26;horizontalStack=0;resizeParent=1;resizeParentMax=0;resizeLast=0;collapsible=1;marginBottom=0;" vertex="1" parent="1">
          <mxGeometry x="400" y="40" width="160" height="104" as="geometry" />
        </mxCell>
        <mxCell id="3" value="+ packages/core&#xa;+ packages/docs&#xa;+ packages/playground" style="text;strokeColor=none;fillColor=none;align=left;verticalAlign=top;spacingLeft=4;spacingRight=4;overflow=hidden;rotatable=0;points=[[0,0.5],[1,0.5]];portConstraint=eastwest;" vertex="1" parent="2">
          <mxGeometry y="26" width="160" height="78" as="geometry" />
        </mxCell>

        <!-- Core Package -->
        <mxCell id="4" value="Core Package" style="swimlane;fontStyle=1;align=center;verticalAlign=top;childLayout=stackLayout;horizontal=1;startSize=26;horizontalStack=0;resizeParent=1;resizeParentMax=0;resizeLast=0;collapsible=1;marginBottom=0;" vertex="1" parent="1">
          <mxGeometry x="200" y="200" width="160" height="130" as="geometry" />
        </mxCell>
        <mxCell id="5" value="+ components/&#xa;+ composables/&#xa;+ styles/&#xa;+ types/&#xa;+ utils/" style="text;strokeColor=none;fillColor=none;align=left;verticalAlign=top;spacingLeft=4;spacingRight=4;overflow=hidden;rotatable=0;points=[[0,0.5],[1,0.5]];portConstraint=eastwest;" vertex="1" parent="4">
          <mxGeometry y="26" width="160" height="104" as="geometry" />
        </mxCell>

        <!-- Theme System -->
        <mxCell id="6" value="Theme System" style="swimlane;fontStyle=1;align=center;verticalAlign=top;childLayout=stackLayout;horizontal=1;startSize=26;horizontalStack=0;resizeParent=1;resizeParentMax=0;resizeLast=0;collapsible=1;marginBottom=0;" vertex="1" parent="1">
          <mxGeometry x="400" y="200" width="200" height="130" as="geometry" />
        </mxCell>
        <mxCell id="7" value="+ base.css&#xa;+ theme-init.ts&#xa;+ init-script.js&#xa;+ useTheme composable&#xa;+ CSS Custom Properties" style="text;strokeColor=none;fillColor=none;align=left;verticalAlign=top;spacingLeft=4;spacingRight=4;overflow=hidden;rotatable=0;points=[[0,0.5],[1,0.5]];portConstraint=eastwest;" vertex="1" parent="6">
          <mxGeometry y="26" width="200" height="104" as="geometry" />
        </mxCell>

        <!-- Components -->
        <mxCell id="8" value="Components" style="swimlane;fontStyle=1;align=center;verticalAlign=top;childLayout=stackLayout;horizontal=1;startSize=26;horizontalStack=0;resizeParent=1;resizeParentMax=0;resizeLast=0;collapsible=1;marginBottom=0;" vertex="1" parent="1">
          <mxGeometry x="640" y="200" width="160" height="130" as="geometry" />
        </mxCell>
        <mxCell id="9" value="+ VButton&#xa;+ VInput&#xa;+ Future Components" style="text;strokeColor=none;fillColor=none;align=left;verticalAlign=top;spacingLeft=4;spacingRight=4;overflow=hidden;rotatable=0;points=[[0,0.5],[1,0.5]];portConstraint=eastwest;" vertex="1" parent="8">
          <mxGeometry y="26" width="160" height="104" as="geometry" />
        </mxCell>

        <!-- Theme Flow -->
        <mxCell id="10" value="Theme Initialization Flow" style="swimlane;fontStyle=1;align=center;verticalAlign=top;childLayout=stackLayout;horizontal=1;startSize=26;horizontalStack=0;resizeParent=1;resizeParentMax=0;resizeLast=0;collapsible=1;marginBottom=0;" vertex="1" parent="1">
          <mxGeometry x="400" y="400" width="200" height="160" as="geometry" />
        </mxCell>
        <mxCell id="11" value="1. Check Cookie Storage&#xa;2. Check Local Storage&#xa;3. Check System Preference&#xa;4. Apply Default Theme&#xa;5. Set data-vuely-initialized&#xa;6. Show Content" style="text;strokeColor=none;fillColor=none;align=left;verticalAlign=top;spacingLeft=4;spacingRight=4;overflow=hidden;rotatable=0;points=[[0,0.5],[1,0.5]];portConstraint=eastwest;" vertex="1" parent="10">
          <mxGeometry y="26" width="200" height="134" as="geometry" />
        </mxCell>

        <!-- Build Output -->
        <mxCell id="12" value="Build Output" style="swimlane;fontStyle=1;align=center;verticalAlign=top;childLayout=stackLayout;horizontal=1;startSize=26;horizontalStack=0;resizeParent=1;resizeParentMax=0;resizeLast=0;collapsible=1;marginBottom=0;" vertex="1" parent="1">
          <mxGeometry x="640" y="400" width="160" height="130" as="geometry" />
        </mxCell>
        <mxCell id="13" value="+ vuely.es.js&#xa;+ vuely.umd.js&#xa;+ vuely.css&#xa;+ types/" style="text;strokeColor=none;fillColor=none;align=left;verticalAlign=top;spacingLeft=4;spacingRight=4;overflow=hidden;rotatable=0;points=[[0,0.5],[1,0.5]];portConstraint=eastwest;" vertex="1" parent="12">
          <mxGeometry y="26" width="160" height="104" as="geometry" />
        </mxCell>

        <!-- Connections -->
        <mxCell id="14" value="" style="endArrow=classic;html=1;exitX=0.5;exitY=1;entryX=0.5;entryY=0;rounded=0;" edge="1" parent="1" source="2" target="4">
          <mxGeometry width="50" height="50" relative="1" as="geometry" />
        </mxCell>
        <mxCell id="15" value="" style="endArrow=classic;html=1;exitX=0.5;exitY=1;entryX=0.5;entryY=0;rounded=0;" edge="1" parent="1" source="2" target="6">
          <mxGeometry width="50" height="50" relative="1" as="geometry" />
        </mxCell>
        <mxCell id="16" value="" style="endArrow=classic;html=1;exitX=0.5;exitY=1;entryX=0.5;entryY=0;rounded=0;" edge="1" parent="1" source="2" target="8">
          <mxGeometry width="50" height="50" relative="1" as="geometry" />
        </mxCell>
        <mxCell id="17" value="" style="endArrow=classic;html=1;exitX=0.5;exitY=1;entryX=0.5;entryY=0;rounded=0;" edge="1" parent="1" source="6" target="10">
          <mxGeometry width="50" height="50" relative="1" as="geometry" />
        </mxCell>
        <mxCell id="18" value="" style="endArrow=classic;html=1;exitX=0.5;exitY=1;entryX=0.5;entryY=0;rounded=0;" edge="1" parent="1" source="8" target="12">
          <mxGeometry width="50" height="50" relative="1" as="geometry" />
        </mxCell>

        <!-- Component Dependencies -->
        <mxCell id="19" value="Uses" style="endArrow=open;endSize=12;dashed=1;html=1;rounded=0;" edge="1" parent="1" source="8" target="6">
          <mxGeometry width="160" relative="1" as="geometry" />
        </mxCell>
        <mxCell id="20" value="Imports" style="endArrow=open;endSize=12;dashed=1;html=1;rounded=0;" edge="1" parent="1" source="8" target="4">
          <mxGeometry width="160" relative="1" as="geometry" />
        </mxCell>

      </root>
    </mxGraphModel>
  </diagram>
</mxfile> 